<svg width="161" height="32" viewBox="0 0 161 32" fill="none" xmlns="http://www.w3.org/2000/svg">
<path d="M142.394 1.38197C142.992 -0.460655 145.6 -0.460655 146.198 1.38197L148.674 9.00208C148.942 9.826 149.71 10.3839 150.576 10.3839H158.588C160.525 10.3839 161.331 12.8633 159.764 14.0021L153.282 18.7111C152.581 19.2204 152.288 20.1234 152.556 20.9474L155.031 28.5675C155.63 30.4101 153.521 31.9426 151.953 30.8038L145.472 26.0939C144.771 25.5846 143.821 25.5846 143.12 26.0939L136.639 30.8038C135.071 31.9426 132.962 30.4101 133.561 28.5675L136.036 20.9474C136.304 20.1234 136.011 19.2204 135.311 18.7111L128.828 14.0021C128.602 13.8378 128.427 13.6443 128.296 13.4357C128.165 13.6442 127.99 13.8378 127.764 14.0021L121.282 18.7111C120.581 19.2204 120.288 20.1234 120.556 20.9474L123.031 28.5675C123.63 30.4101 121.521 31.9426 119.953 30.8038L113.472 26.0939C112.771 25.5846 111.821 25.5846 111.12 26.0939L104.639 30.8038C103.071 31.9426 100.962 30.4101 101.561 28.5675L104.036 20.9474C104.304 20.1234 104.011 19.2204 103.311 18.7111L96.8282 14.0021C96.6021 13.8378 96.427 13.6443 96.296 13.4357C96.1649 13.6442 95.9898 13.8378 95.7637 14.0021L89.2823 18.7111C88.5813 19.2204 88.288 20.1234 88.5557 20.9474L91.0313 28.5675C91.6299 30.4101 89.5206 31.9426 87.9532 30.8038L81.4718 26.0939C80.7708 25.5846 79.8212 25.5846 79.1202 26.0939L72.6387 30.8038C71.0714 31.9426 68.9621 30.4101 69.5606 28.5675L72.0362 20.9474C72.3039 20.1234 72.0114 19.2204 71.3106 18.7111L64.8282 14.0021C64.6021 13.8378 64.427 13.6443 64.296 13.4357C64.1649 13.6442 63.9898 13.8378 63.7637 14.0021L57.2823 18.7111C56.5813 19.2204 56.288 20.1234 56.5557 20.9474L59.0313 28.5675C59.6299 30.4101 57.5206 31.9426 55.9532 30.8038L49.4718 26.0939C48.7708 25.5846 47.8212 25.5846 47.1202 26.0939L40.6387 30.8038C39.0714 31.9426 36.9621 30.4101 37.5606 28.5675L40.0362 20.9474C40.3039 20.1234 40.0114 19.2204 39.3106 18.7111L32.8282 14.0021C32.6021 13.8378 32.427 13.6443 32.296 13.4357C32.1649 13.6442 31.9898 13.8378 31.7637 14.0021L25.2823 18.7111C24.5813 19.2204 24.288 20.1234 24.5557 20.9474L27.0313 28.5675C27.6299 30.4101 25.5206 31.9426 23.9532 30.8038L17.4718 26.0939C16.7708 25.5846 15.8212 25.5846 15.1202 26.0939L8.63875 30.8038C7.07137 31.9426 4.96211 30.4101 5.56062 28.5675L8.03621 20.9474C8.30393 20.1234 8.01143 19.2204 7.31062 18.7111L0.828199 14.0021C-0.739228 12.8633 0.0665339 10.3839 2.00398 10.3839H10.0157C10.8821 10.3839 11.6502 9.82598 11.918 9.00208L14.3936 1.38197C14.9923 -0.460655 17.5996 -0.460655 18.1983 1.38197L20.6739 9.00208C20.9417 9.826 21.7099 10.3839 22.5762 10.3839H30.588C31.3677 10.3839 31.9638 10.7858 32.296 11.34C32.6281 10.7858 33.2242 10.3839 34.004 10.3839H42.0157C42.8821 10.3839 43.6502 9.82598 43.918 9.00208L46.3936 1.38197C46.9923 -0.460655 49.5996 -0.460655 50.1983 1.38197L52.6739 9.00208C52.9417 9.826 53.7099 10.3839 54.5762 10.3839H62.588C63.3677 10.3839 63.9638 10.7858 64.296 11.34C64.6281 10.7858 65.2242 10.3839 66.004 10.3839H74.0157C74.8821 10.3839 75.6502 9.82598 75.918 9.00208L78.3936 1.38197C78.9923 -0.460655 81.5996 -0.460655 82.1983 1.38197L84.6739 9.00208C84.9417 9.826 85.7099 10.3839 86.5762 10.3839H94.588C95.3677 10.3839 95.9638 10.7858 96.296 11.34C96.6281 10.7858 97.2242 10.3839 98.004 10.3839H106.016C106.882 10.3839 107.65 9.82598 107.918 9.00208L110.394 1.38197C110.992 -0.460655 113.6 -0.460655 114.198 1.38197L116.674 9.00208C116.942 9.826 117.71 10.3839 118.576 10.3839H126.588C127.368 10.3839 127.964 10.7858 128.296 11.34C128.628 10.7858 129.224 10.3839 130.004 10.3839H138.016C138.882 10.3839 139.65 9.82598 139.918 9.00208L142.394 1.38197Z" fill="#5BC0BE" fill-opacity="0.3"/>
</svg>
