<svg width="830" height="727" viewBox="0 0 830 727" fill="none" xmlns="http://www.w3.org/2000/svg">
<rect width="830" height="727" fill="#D9D9D9"/>
<path d="M273.821 320.4H280.541V354H273.821V320.4ZM285.352 354V320.4H295.72L300.136 341.712H300.472L304.84 320.4H315.16V354H308.632L308.824 329.472H308.296L302.872 354H297.688L292.216 329.472H291.688L291.928 354H285.352ZM317.978 354V352.896L324.986 320.4L336.938 320.448L343.994 352.896V354H336.986L335.45 345.552H326.522L324.938 354H317.978ZM327.434 339.648H334.49L332.138 326.784H329.786L327.434 339.648ZM344.245 337.2C344.245 333.2 344.949 329.92 346.357 327.36C347.797 324.8 349.701 322.912 352.069 321.696C354.469 320.48 357.109 319.872 359.989 319.872C361.557 319.872 362.965 320.032 364.213 320.352C365.461 320.672 366.517 321.056 367.381 321.504C368.277 321.92 368.917 322.336 369.301 322.752V329.616H368.389C368.005 329.04 367.445 328.48 366.709 327.936C365.973 327.392 365.093 326.96 364.069 326.64C363.077 326.288 361.957 326.112 360.709 326.112C358.725 326.112 357.013 326.528 355.573 327.36C354.165 328.16 353.093 329.392 352.357 331.056C351.621 332.688 351.253 334.736 351.253 337.2C351.253 339.568 351.589 341.6 352.261 343.296C352.965 344.96 353.973 346.24 355.285 347.136C356.597 348 358.149 348.432 359.941 348.432C360.709 348.432 361.365 348.352 361.909 348.192C362.453 348 362.869 347.76 363.157 347.472V339.888H354.997V334.032H369.301V350.592C367.925 351.968 366.341 352.976 364.549 353.616C362.789 354.224 360.869 354.528 358.789 354.528C356.901 354.528 355.077 354.192 353.317 353.52C351.589 352.816 350.037 351.76 348.661 350.352C347.317 348.944 346.245 347.152 345.445 344.976C344.645 342.8 344.245 340.208 344.245 337.2ZM391.084 320.4V326.544H380.572V334.752C381.564 334.368 382.604 334.064 383.692 333.84C384.812 333.616 385.916 333.472 387.004 333.408C388.092 333.344 389.1 333.376 390.028 333.504V339.408L389.596 339.696C388.86 339.472 387.996 339.344 387.004 339.312C386.044 339.28 385.004 339.344 383.884 339.504C382.764 339.664 381.66 339.936 380.572 340.32V347.856H391.084V354H373.852V320.4H391.084ZM394.711 354V320.4H405.079L409.495 341.712H409.831L414.199 320.4H424.519V354H417.991L418.183 329.472H417.655L412.231 354H407.047L401.575 329.472H401.047L401.287 354H394.711ZM450.429 320.4C453.085 320.4 455.469 321.008 457.581 322.224C459.693 323.408 461.373 325.232 462.621 327.696C463.869 330.16 464.493 333.328 464.493 337.2C464.493 341.04 463.869 344.208 462.621 346.704C461.373 349.168 459.693 351.008 457.581 352.224C455.469 353.408 453.085 354 450.429 354H441.165V320.4H450.429ZM450.333 347.616C452.509 347.616 454.269 346.704 455.613 344.88C456.957 343.056 457.629 340.496 457.629 337.2C457.629 333.84 456.941 331.264 455.565 329.472C454.221 327.68 452.477 326.784 450.333 326.784H447.885V347.616H450.333ZM466.682 337.2C466.682 333.136 467.338 329.824 468.65 327.264C469.962 324.704 471.674 322.832 473.786 321.648C475.93 320.432 478.25 319.824 480.746 319.824C483.242 319.824 485.546 320.432 487.658 321.648C489.802 322.832 491.53 324.704 492.842 327.264C494.154 329.824 494.81 333.136 494.81 337.2C494.81 341.264 494.154 344.576 492.842 347.136C491.53 349.696 489.802 351.584 487.658 352.8C485.546 353.984 483.242 354.576 480.746 354.576C478.25 354.576 475.93 353.984 473.786 352.8C471.674 351.584 469.962 349.696 468.65 347.136C467.338 344.576 466.682 341.264 466.682 337.2ZM473.69 337.2C473.69 339.632 473.994 341.664 474.602 343.296C475.242 344.928 476.09 346.16 477.146 346.992C478.234 347.792 479.434 348.192 480.746 348.192C482.058 348.192 483.258 347.792 484.346 346.992C485.466 346.16 486.346 344.928 486.986 343.296C487.626 341.664 487.946 339.632 487.946 337.2C487.946 334.736 487.61 332.688 486.938 331.056C486.298 329.424 485.434 328.208 484.346 327.408C483.258 326.608 482.074 326.208 480.794 326.208C479.45 326.208 478.234 326.624 477.146 327.456C476.09 328.288 475.242 329.52 474.602 331.152C473.994 332.752 473.69 334.768 473.69 337.2ZM508.917 337.2C508.917 334.224 509.317 331.648 510.117 329.472C510.917 327.296 511.989 325.504 513.333 324.096C514.709 322.656 516.261 321.6 517.989 320.928C519.717 320.224 521.509 319.872 523.365 319.872C525.157 319.872 526.629 320.064 527.781 320.448C528.965 320.8 529.813 321.2 530.325 321.648V328.08H529.413C528.965 327.6 528.325 327.152 527.493 326.736C526.661 326.32 525.637 326.112 524.421 326.112C522.757 326.112 521.285 326.544 520.005 327.408C518.725 328.24 517.717 329.488 516.981 331.152C516.277 332.784 515.925 334.8 515.925 337.2C515.925 339.6 516.277 341.632 516.981 343.296C517.717 344.928 518.725 346.176 520.005 347.04C521.285 347.872 522.757 348.288 524.421 348.288C525.637 348.288 526.661 348.08 527.493 347.664C528.325 347.248 528.965 346.8 529.413 346.32H530.325V352.752C529.813 353.168 528.965 353.568 527.781 353.952C526.629 354.336 525.157 354.528 523.365 354.528C521.509 354.528 519.717 354.192 517.989 353.52C516.261 352.816 514.709 351.76 513.333 350.352C511.989 348.912 510.917 347.104 510.117 344.928C509.317 342.752 508.917 340.176 508.917 337.2ZM532.197 354V352.896L539.205 320.4L551.157 320.448L558.213 352.896V354H551.205L549.669 345.552H540.741L539.157 354H532.197ZM541.653 339.648H548.709L546.357 326.784H544.005L541.653 339.648ZM249.252 396.2C249.252 393.288 249.588 390.488 250.26 387.8C250.932 385.08 251.892 382.584 253.14 380.312C254.388 378.008 255.876 376.056 257.604 374.456H258.564V374.84C256.996 376.568 255.668 378.568 254.58 380.84C253.524 383.112 252.724 385.56 252.18 388.184C251.668 390.776 251.412 393.448 251.412 396.2C251.412 398.952 251.668 401.64 252.18 404.264C252.724 406.856 253.524 409.288 254.58 411.56C255.668 413.8 256.996 415.8 258.564 417.56V417.944H257.604C255.876 416.312 254.388 414.36 253.14 412.088C251.892 409.816 250.932 407.336 250.26 404.648C249.588 401.928 249.252 399.112 249.252 396.2ZM278.465 379.4V385.544H268.049V394.616C269.041 394.232 270.081 393.944 271.169 393.752C272.289 393.528 273.393 393.384 274.481 393.32C275.569 393.256 276.577 393.272 277.505 393.368V399.272L277.073 399.56C276.337 399.336 275.473 399.208 274.481 399.176C273.521 399.144 272.481 399.208 271.361 399.368C270.241 399.528 269.137 399.8 268.049 400.184V413H261.329V379.4H278.465ZM280.565 396.2C280.565 392.136 281.221 388.824 282.533 386.264C283.845 383.704 285.557 381.832 287.669 380.648C289.813 379.432 292.133 378.824 294.629 378.824C297.125 378.824 299.429 379.432 301.541 380.648C303.685 381.832 305.413 383.704 306.725 386.264C308.037 388.824 308.693 392.136 308.693 396.2C308.693 400.264 308.037 403.576 306.725 406.136C305.413 408.696 303.685 410.584 301.541 411.8C299.429 412.984 297.125 413.576 294.629 413.576C292.133 413.576 289.813 412.984 287.669 411.8C285.557 410.584 283.845 408.696 282.533 406.136C281.221 403.576 280.565 400.264 280.565 396.2ZM287.573 396.2C287.573 398.632 287.877 400.664 288.485 402.296C289.125 403.928 289.973 405.16 291.029 405.992C292.117 406.792 293.317 407.192 294.629 407.192C295.941 407.192 297.141 406.792 298.229 405.992C299.349 405.16 300.229 403.928 300.869 402.296C301.509 400.664 301.829 398.632 301.829 396.2C301.829 393.736 301.493 391.688 300.821 390.056C300.181 388.424 299.317 387.208 298.229 386.408C297.141 385.608 295.957 385.208 294.677 385.208C293.333 385.208 292.117 385.624 291.029 386.456C289.973 387.288 289.125 388.52 288.485 390.152C287.877 391.752 287.573 393.768 287.573 396.2ZM328.358 379.4V385.592H321.926V413H315.206V385.592H308.678V379.4H328.358ZM328.002 396.2C328.002 392.136 328.658 388.824 329.97 386.264C331.282 383.704 332.994 381.832 335.106 380.648C337.25 379.432 339.57 378.824 342.066 378.824C344.562 378.824 346.866 379.432 348.978 380.648C351.122 381.832 352.85 383.704 354.162 386.264C355.474 388.824 356.13 392.136 356.13 396.2C356.13 400.264 355.474 403.576 354.162 406.136C352.85 408.696 351.122 410.584 348.978 411.8C346.866 412.984 344.562 413.576 342.066 413.576C339.57 413.576 337.25 412.984 335.106 411.8C332.994 410.584 331.282 408.696 329.97 406.136C328.658 403.576 328.002 400.264 328.002 396.2ZM335.01 396.2C335.01 398.632 335.314 400.664 335.922 402.296C336.562 403.928 337.41 405.16 338.466 405.992C339.554 406.792 340.754 407.192 342.066 407.192C343.378 407.192 344.578 406.792 345.666 405.992C346.786 405.16 347.666 403.928 348.306 402.296C348.946 400.664 349.266 398.632 349.266 396.2C349.266 393.736 348.93 391.688 348.258 390.056C347.618 388.424 346.754 387.208 345.666 386.408C344.578 385.608 343.394 385.208 342.114 385.208C340.77 385.208 339.554 385.624 338.466 386.456C337.41 387.288 336.562 388.52 335.922 390.152C335.314 391.752 335.01 393.768 335.01 396.2ZM388.717 379.4V385.544H378.205V393.752C379.197 393.368 380.237 393.064 381.325 392.84C382.445 392.616 383.549 392.472 384.637 392.408C385.725 392.344 386.733 392.376 387.661 392.504V398.408L387.229 398.696C386.493 398.472 385.629 398.344 384.637 398.312C383.677 398.28 382.637 398.344 381.517 398.504C380.397 398.664 379.293 398.936 378.205 399.32V406.856H388.717V413H371.485V379.4H388.717ZM392.344 413V379.4H402.712L407.128 400.712H407.464L411.832 379.4H422.152V413H415.624L415.816 388.472H415.288L409.864 413H404.68L399.208 388.472H398.68L398.92 413H392.344ZM437.549 396.2C437.549 392.2 438.253 388.92 439.661 386.36C441.101 383.8 443.005 381.912 445.373 380.696C447.773 379.48 450.413 378.872 453.293 378.872C454.861 378.872 456.269 379.032 457.517 379.352C458.765 379.672 459.821 380.056 460.685 380.504C461.581 380.92 462.221 381.336 462.605 381.752V388.616H461.693C461.309 388.04 460.749 387.48 460.013 386.936C459.277 386.392 458.397 385.96 457.373 385.64C456.381 385.288 455.261 385.112 454.013 385.112C452.029 385.112 450.317 385.528 448.877 386.36C447.469 387.16 446.397 388.392 445.661 390.056C444.925 391.688 444.557 393.736 444.557 396.2C444.557 398.568 444.893 400.6 445.565 402.296C446.269 403.96 447.277 405.24 448.589 406.136C449.901 407 451.453 407.432 453.245 407.432C454.013 407.432 454.669 407.352 455.213 407.192C455.757 407 456.173 406.76 456.461 406.472V398.888H448.301V393.032H462.605V409.592C461.229 410.968 459.645 411.976 457.853 412.616C456.093 413.224 454.173 413.528 452.093 413.528C450.205 413.528 448.381 413.192 446.621 412.52C444.893 411.816 443.341 410.76 441.965 409.352C440.621 407.944 439.549 406.152 438.749 403.976C437.949 401.8 437.549 399.208 437.549 396.2ZM467.253 379.4H473.973V413H467.157L467.253 379.4ZM479.445 379.4C481.365 379.4 483.061 379.784 484.533 380.552C486.037 381.288 487.221 382.424 488.085 383.96C488.949 385.464 489.381 387.352 489.381 389.624C489.381 391.96 488.901 393.912 487.941 395.48C487.013 397.016 485.797 398.184 484.293 398.984C482.821 399.752 481.237 400.136 479.541 400.136H470.421V379.4H479.445ZM473.877 394.328H478.629C479.397 394.328 480.069 394.152 480.645 393.8C481.221 393.448 481.653 392.936 481.941 392.264C482.261 391.56 482.421 390.776 482.421 389.912C482.421 388.984 482.261 388.2 481.941 387.56C481.653 386.888 481.221 386.392 480.645 386.072C480.069 385.72 479.397 385.544 478.629 385.544H473.877V394.328ZM476.565 396.488L482.997 396.344L489.381 411.896V413H482.373L476.565 396.488ZM515.643 401.336C515.643 403.608 515.307 405.528 514.635 407.096C513.963 408.664 513.051 409.928 511.899 410.888C510.779 411.816 509.531 412.488 508.155 412.904C506.811 413.32 505.467 413.528 504.123 413.528C502.779 413.528 501.419 413.32 500.043 412.904C498.699 412.488 497.451 411.816 496.299 410.888C495.179 409.928 494.283 408.664 493.611 407.096C492.939 405.528 492.603 403.608 492.603 401.336V379.4H499.371V400.472C499.371 401.72 499.547 402.824 499.899 403.784C500.251 404.712 500.779 405.448 501.483 405.992C502.187 406.504 503.067 406.76 504.123 406.76C505.179 406.76 506.059 406.504 506.763 405.992C507.467 405.448 507.995 404.712 508.347 403.784C508.699 402.824 508.875 401.72 508.875 400.472V379.4H515.643V401.336ZM520.079 413V379.4H531.743C533.791 379.4 535.583 379.784 537.119 380.552C538.655 381.32 539.855 382.52 540.719 384.152C541.615 385.752 542.063 387.848 542.063 390.44C542.063 393 541.583 395.144 540.623 396.872C539.695 398.568 538.447 399.848 536.879 400.712C535.343 401.544 533.631 401.96 531.743 401.96H526.799V413H520.079ZM526.799 396.152H530.831C531.695 396.152 532.463 395.928 533.135 395.48C533.807 395.032 534.319 394.408 534.671 393.608C535.023 392.808 535.199 391.864 535.199 390.776C535.199 389.688 535.023 388.76 534.671 387.992C534.319 387.192 533.807 386.584 533.135 386.168C532.463 385.752 531.695 385.544 530.831 385.544H526.799V396.152ZM543.534 396.2C543.534 392.136 544.19 388.824 545.502 386.264C546.814 383.704 548.526 381.832 550.638 380.648C552.782 379.432 555.102 378.824 557.598 378.824C560.094 378.824 562.398 379.432 564.51 380.648C566.654 381.832 568.382 383.704 569.694 386.264C571.006 388.824 571.662 392.136 571.662 396.2C571.662 400.264 571.006 403.576 569.694 406.136C568.382 408.696 566.654 410.584 564.51 411.8C562.398 412.984 560.094 413.576 557.598 413.576C555.102 413.576 552.782 412.984 550.638 411.8C548.526 410.584 546.814 408.696 545.502 406.136C544.19 403.576 543.534 400.264 543.534 396.2ZM550.542 396.2C550.542 398.632 550.846 400.664 551.454 402.296C552.094 403.928 552.942 405.16 553.998 405.992C555.086 406.792 556.286 407.192 557.598 407.192C558.91 407.192 560.11 406.792 561.198 405.992C562.318 405.16 563.198 403.928 563.838 402.296C564.478 400.664 564.798 398.632 564.798 396.2C564.798 393.736 564.462 391.688 563.79 390.056C563.15 388.424 562.286 387.208 561.198 386.408C560.11 385.608 558.926 385.208 557.646 385.208C556.302 385.208 555.086 385.624 553.998 386.456C552.942 387.288 552.094 388.52 551.454 390.152C550.846 391.752 550.542 393.768 550.542 396.2ZM580.719 396.2C580.719 399.112 580.383 401.928 579.711 404.648C579.071 407.336 578.127 409.816 576.879 412.088C575.631 414.36 574.143 416.312 572.415 417.944H571.455V417.56C573.055 415.8 574.383 413.8 575.439 411.56C576.495 409.288 577.279 406.856 577.791 404.264C578.335 401.64 578.607 398.952 578.607 396.2C578.607 393.448 578.335 390.776 577.791 388.184C577.279 385.56 576.495 383.112 575.439 380.84C574.383 378.568 573.055 376.568 571.455 374.84V374.456H572.415C574.143 376.056 575.631 378.008 576.879 380.312C578.127 382.584 579.071 385.08 579.711 387.8C580.383 390.488 580.719 393.288 580.719 396.2Z" fill="black"/>
</svg>
