<svg width="90" height="90" viewBox="0 0 90 90" fill="none" xmlns="http://www.w3.org/2000/svg">
<path d="M0 45C0 20.1472 20.1472 0 45 0C69.8528 0 90 20.1472 90 45C90 69.8528 69.8528 90 45 90C20.1472 90 0 69.8528 0 45Z" fill="white" fill-opacity="0.75"/>
<path d="M66.2042 25.5462C62.325 23.7378 58.125 22.4253 53.75 21.667C53.6731 21.6681 53.5997 21.6995 53.5459 21.7545C53.0209 22.717 52.4083 23.9712 52 24.9337C47.3596 24.2341 42.6405 24.2341 38 24.9337C37.5917 23.942 36.9792 22.717 36.425 21.7545C36.3959 21.6962 36.3083 21.667 36.2208 21.667C31.8458 22.4253 27.675 23.7378 23.7667 25.5462C23.7375 25.5462 23.7084 25.5753 23.6792 25.6045C15.7459 37.4753 13.5583 49.0253 14.6375 60.4587C14.6375 60.517 14.6667 60.5753 14.725 60.6045C19.975 64.4545 25.0209 66.7878 30.0084 68.3337C30.0959 68.3628 30.1833 68.3337 30.2125 68.2753C31.3792 66.6712 32.4292 64.9795 33.3334 63.2003C33.3917 63.0837 33.3334 62.967 33.2167 62.9378C31.5542 62.2962 29.9792 61.5378 28.4334 60.6628C28.3167 60.6045 28.3167 60.4295 28.4042 60.342C28.725 60.1087 29.0458 59.8462 29.3667 59.6128C29.425 59.5545 29.5125 59.5545 29.5709 59.5837C39.6042 64.1628 50.425 64.1628 60.3417 59.5837C60.4 59.5545 60.4875 59.5545 60.5459 59.6128C60.8667 59.8753 61.1875 60.1087 61.5083 60.3712C61.625 60.4587 61.625 60.6337 61.4792 60.692C59.9625 61.5962 58.3584 62.3253 56.6959 62.967C56.5792 62.9962 56.55 63.142 56.5792 63.2295C57.5125 65.0087 58.5625 66.7003 59.7 68.3045C59.7875 68.3337 59.875 68.3628 59.9625 68.3337C64.9792 66.7878 70.025 64.4545 75.275 60.6045C75.3333 60.5753 75.3625 60.517 75.3625 60.4587C76.6458 47.2462 73.2333 35.7837 66.3208 25.6045C66.2917 25.5753 66.2625 25.5462 66.2042 25.5462ZM34.85 53.4878C31.8459 53.4878 29.3375 50.717 29.3375 47.3045C29.3375 43.892 31.7875 41.1212 34.85 41.1212C37.9417 41.1212 40.3917 43.9212 40.3625 47.3045C40.3625 50.717 37.9125 53.4878 34.85 53.4878ZM55.1792 53.4878C52.175 53.4878 49.6667 50.717 49.6667 47.3045C49.6667 43.892 52.1167 41.1212 55.1792 41.1212C58.2709 41.1212 60.7208 43.9212 60.6917 47.3045C60.6917 50.717 58.2709 53.4878 55.1792 53.4878Z" fill="#003566"/>
</svg>
