<svg width="161" height="32" viewBox="0 0 161 32" fill="none" xmlns="http://www.w3.org/2000/svg">
<mask id="mask0_572_374" style="mask-type:alpha" maskUnits="userSpaceOnUse" x="0" y="0" width="161" height="32">
<path d="M142.598 1.38197C143.196 -0.460655 145.804 -0.460655 146.402 1.38197L148.878 9.00208C149.146 9.826 149.914 10.3839 150.78 10.3839H158.792C160.73 10.3839 161.535 12.8633 159.968 14.0021L153.486 18.7111C152.785 19.2204 152.492 20.1234 152.76 20.9474L155.235 28.5675C155.834 30.4101 153.725 31.9426 152.157 30.8038L145.676 26.0939C144.975 25.5846 144.025 25.5846 143.324 26.0939L136.843 30.8038C135.275 31.9426 133.166 30.4101 133.765 28.5675L136.24 20.9474C136.508 20.1234 136.216 19.2204 135.515 18.7111L129.032 14.0021C128.806 13.8378 128.631 13.6443 128.5 13.4357C128.369 13.6442 128.194 13.8378 127.968 14.0021L121.486 18.7111C120.785 19.2204 120.492 20.1234 120.76 20.9474L123.235 28.5675C123.834 30.4101 121.725 31.9426 120.157 30.8038L113.676 26.0939C112.975 25.5846 112.025 25.5846 111.324 26.0939L104.843 30.8038C103.275 31.9426 101.166 30.4101 101.765 28.5675L104.24 20.9474C104.508 20.1234 104.216 19.2204 103.515 18.7111L97.0323 14.0021C96.8062 13.8378 96.6311 13.6443 96.5001 13.4357C96.369 13.6442 96.1939 13.8378 95.9678 14.0021L89.4864 18.7111C88.7854 19.2204 88.4921 20.1234 88.7598 20.9474L91.2354 28.5675C91.834 30.4101 89.7247 31.9426 88.1573 30.8038L81.6759 26.0939C80.9749 25.5846 80.0253 25.5846 79.3243 26.0939L72.8428 30.8038C71.2755 31.9426 69.1662 30.4101 69.7647 28.5675L72.2403 20.9474C72.508 20.1234 72.2155 19.2204 71.5147 18.7111L65.0323 14.0021C64.8062 13.8378 64.6311 13.6443 64.5001 13.4357C64.369 13.6442 64.1939 13.8378 63.9678 14.0021L57.4864 18.7111C56.7854 19.2204 56.4921 20.1234 56.7598 20.9474L59.2354 28.5675C59.834 30.4101 57.7247 31.9426 56.1573 30.8038L49.6759 26.0939C48.9749 25.5846 48.0253 25.5846 47.3243 26.0939L40.8428 30.8038C39.2755 31.9426 37.1662 30.4101 37.7647 28.5675L40.2403 20.9474C40.508 20.1234 40.2155 19.2204 39.5147 18.7111L33.0323 14.0021C32.8062 13.8378 32.6311 13.6443 32.5001 13.4357C32.369 13.6442 32.1939 13.8378 31.9678 14.0021L25.4864 18.7111C24.7854 19.2204 24.4921 20.1234 24.7598 20.9474L27.2354 28.5675C27.834 30.4101 25.7247 31.9426 24.1573 30.8038L17.6759 26.0939C16.9749 25.5846 16.0253 25.5846 15.3243 26.0939L8.84285 30.8038C7.27547 31.9426 5.16621 30.4101 5.76472 28.5675L8.24031 20.9474C8.50803 20.1234 8.21553 19.2204 7.51472 18.7111L1.0323 14.0021C-0.535126 12.8633 0.270635 10.3839 2.20808 10.3839H10.2198C11.0862 10.3839 11.8543 9.82598 12.1221 9.00208L14.5977 1.38197C15.1964 -0.460655 17.8037 -0.460655 18.4024 1.38197L20.878 9.00208C21.1458 9.826 21.914 10.3839 22.7803 10.3839H30.7921C31.5718 10.3839 32.1679 10.7858 32.5001 11.34C32.8322 10.7858 33.4283 10.3839 34.2081 10.3839H42.2198C43.0862 10.3839 43.8543 9.82598 44.1221 9.00208L46.5977 1.38197C47.1964 -0.460655 49.8037 -0.460655 50.4024 1.38197L52.878 9.00208C53.1458 9.826 53.914 10.3839 54.7803 10.3839H62.7921C63.5718 10.3839 64.1679 10.7858 64.5001 11.34C64.8322 10.7858 65.4283 10.3839 66.2081 10.3839H74.2198C75.0862 10.3839 75.8543 9.82598 76.1221 9.00208L78.5977 1.38197C79.1964 -0.460655 81.8037 -0.460655 82.4024 1.38197L84.878 9.00208C85.1458 9.826 85.914 10.3839 86.7803 10.3839H94.7921C95.5718 10.3839 96.1679 10.7858 96.5001 11.34C96.8322 10.7858 97.4283 10.3839 98.2081 10.3839H106.22C107.086 10.3839 107.854 9.82598 108.122 9.00208L110.598 1.38197C111.196 -0.460655 113.804 -0.460655 114.402 1.38197L116.878 9.00208C117.146 9.826 117.914 10.3839 118.78 10.3839H126.792C127.572 10.3839 128.168 10.7858 128.5 11.34C128.832 10.7858 129.428 10.3839 130.208 10.3839H138.22C139.086 10.3839 139.854 9.82598 140.122 9.00208L142.598 1.38197Z" fill="#FFC300"/>
</mask>
<g mask="url(#mask0_572_374)">
<rect x="-2" width="164" height="34" fill="#DBB640"/>
</g>
</svg>
