<svg width="349" height="284" viewBox="0 0 349 284" fill="none" xmlns="http://www.w3.org/2000/svg">
<rect width="349" height="284" fill="#003566"/>
<mask id="mask0_487_12" style="mask-type:alpha" maskUnits="userSpaceOnUse" x="0" y="0" width="349" height="284">
<rect width="349" height="284" fill="#003566"/>
</mask>
<g mask="url(#mask0_487_12)">
<path d="M55.1455 148.387C63.0097 136.075 80.9902 136.075 88.8545 148.387L164.931 267.483C165.398 268.216 165.809 268.962 166.169 269.716L211.352 198.841C217.248 189.592 230.752 189.592 236.648 198.841L301.096 299.937C307.461 309.922 300.289 323 288.447 323H159.553C147.711 323 140.539 309.922 146.904 299.937L147.979 298.25H-4.07619C-19.8732 298.25 -29.4346 280.796 -20.9307 267.483L55.1455 148.387ZM284.5 28C303.002 28 318 42.9985 318 61.5C318 80.0015 303.002 95 284.5 95C265.998 95 251 80.0015 251 61.5C251 42.9985 265.998 28 284.5 28Z" fill="#001D3D"/>
</g>
</svg>
