<svg width="90" height="90" viewBox="0 0 90 90" fill="none" xmlns="http://www.w3.org/2000/svg">
<path d="M0 45C0 20.1472 20.1472 0 45 0C69.8528 0 90 20.1472 90 45C90 69.8528 69.8528 90 45 90C20.1472 90 0 69.8528 0 45Z" fill="white" fill-opacity="0.75"/>
<path d="M58.7744 51.0088C58.0293 50.626 54.3174 48.8076 53.627 48.5615C52.9365 48.3018 52.4307 48.1787 51.9316 48.9443C51.4258 49.7031 49.9902 51.3916 49.5391 51.9043C49.1016 52.4102 48.6572 52.4717 47.9121 52.0957C43.4824 49.8809 40.5771 48.1445 37.6582 43.1338C36.8857 41.8008 38.4307 41.8965 39.873 39.0186C40.1191 38.5127 39.9961 38.082 39.8047 37.6992C39.6133 37.3164 38.1094 33.6113 37.4805 32.1006C36.8721 30.6309 36.2432 30.8359 35.7852 30.8086C35.3477 30.7812 34.8486 30.7812 34.3428 30.7812C33.8369 30.7812 33.0234 30.9727 32.333 31.7178C31.6426 32.4766 29.6943 34.3018 29.6943 38.0068C29.6943 41.7119 32.3945 45.3008 32.7637 45.8066C33.1465 46.3125 38.0752 53.9141 45.6426 57.1885C50.4277 59.2529 52.3008 59.4307 54.6934 59.0752C56.1494 58.8564 59.1504 57.2568 59.7725 55.4863C60.3945 53.7227 60.3945 52.2119 60.21 51.8975C60.0254 51.5625 59.5195 51.3711 58.7744 51.0088Z" fill="#003566"/>
<path d="M73.246 33.1328C71.7011 29.4619 69.4862 26.167 66.663 23.3369C63.8397 20.5137 60.5448 18.292 56.8671 16.7539C53.1073 15.1748 49.1151 14.375 44.9999 14.375H44.8632C40.7206 14.3955 36.7079 15.2158 32.9345 16.8291C29.2909 18.3877 26.0233 20.6025 23.2274 23.4258C20.4315 26.249 18.2372 29.5303 16.7196 33.1875C15.1474 36.9746 14.3544 41.001 14.3749 45.1436C14.3954 49.8877 15.5302 54.5977 17.6561 58.8086V69.1992C17.6561 70.9356 19.0644 72.3438 20.8007 72.3438H31.1981C35.4091 74.4697 40.119 75.6045 44.8632 75.625H45.0067C49.1015 75.625 53.0731 74.832 56.8124 73.2803C60.4696 71.7559 63.7577 69.5684 66.5741 66.7725C69.3974 63.9766 71.619 60.709 73.1708 57.0654C74.7841 53.292 75.6044 49.2793 75.6249 45.1367C75.6454 40.9736 74.8388 36.9336 73.246 33.1328ZM62.9169 63.0742C58.1249 67.8184 51.7675 70.4297 44.9999 70.4297H44.8837C40.7616 70.4092 36.6669 69.3838 33.0507 67.4561L32.4765 67.1484H22.8515V57.5234L22.5438 56.9492C20.6161 53.333 19.5907 49.2383 19.5702 45.1162C19.5429 38.3008 22.1474 31.9023 26.9257 27.083C31.6972 22.2637 38.0751 19.5977 44.8905 19.5703H45.0067C48.4247 19.5703 51.7401 20.2334 54.8642 21.5459C57.913 22.8242 60.6474 24.6631 62.9989 27.0146C65.3436 29.3594 67.1894 32.1006 68.4677 35.1494C69.7938 38.3076 70.4569 41.6572 70.4433 45.1162C70.4022 51.9248 67.7294 58.3027 62.9169 63.0742Z" fill="#003566"/>
</svg>
