<svg width="398" height="586" viewBox="0 0 398 586" fill="none" xmlns="http://www.w3.org/2000/svg">
<rect width="398" height="586" rx="20" transform="matrix(-1 0 0 1 398 0)" fill="#003566"/>
<mask id="mask0_401_115" style="mask-type:alpha" maskUnits="userSpaceOnUse" x="0" y="0" width="398" height="586">
<rect width="398" height="586" rx="20" transform="matrix(-1 0 0 1 398 0)" fill="#D9D9D9"/>
</mask>
<g mask="url(#mask0_401_115)">
<g filter="url(#filter0_n_401_115)">
<path d="M1.5 588.5H399V178.5C399 178.5 353.425 126.036 316 103.5C275.056 78.8453 244.313 82.2639 200.25 63.75C117.623 29.0327 1.5 -51 1.5 -51V588.5Z" fill="url(#paint0_linear_401_115)"/>
</g>
<g filter="url(#filter1_n_401_115)">
<path d="M-1 588.502H405V375.502C381.126 260.81 140 196.003 140 196.003C168.054 117.58 134.226 -96.5646 -1 -10.9982V588.502Z" fill="url(#paint1_linear_401_115)"/>
</g>
<path d="M-6 597H395C210.5 541 125.5 430.5 180 298C231.556 172.657 180 87.5 -6 5V597Z" fill="url(#paint2_linear_401_115)"/>
</g>
<path d="M306.917 150.833V135.833C306.917 130.283 302.467 125.833 296.917 125.833H266.917V110.833H276.917V80.833H246.917V110.833H256.917V125.833H226.917C221.367 125.833 216.917 130.283 216.917 135.833V150.833H206.917V180.833H236.917V150.833H226.917V135.833H256.917V150.833H246.917V180.833H276.917V150.833H266.917V135.833H296.917V150.833H286.917V180.833H316.917V150.833H306.917ZM256.917 90.833H266.917V100.833H256.917V90.833ZM226.917 170.833H216.917V160.833H226.917V170.833ZM266.917 170.833H256.917V160.833H266.917V170.833ZM306.917 170.833H296.917V160.833H306.917V170.833Z" fill="#003566"/>
<defs>
<filter id="filter0_n_401_115" x="1.5" y="-51" width="397.5" height="639.5" filterUnits="userSpaceOnUse" color-interpolation-filters="sRGB">
<feFlood flood-opacity="0" result="BackgroundImageFix"/>
<feBlend mode="normal" in="SourceGraphic" in2="BackgroundImageFix" result="shape"/>
<feTurbulence type="fractalNoise" baseFrequency="2 2" stitchTiles="stitch" numOctaves="3" result="noise" seed="8392" />
<feColorMatrix in="noise" type="luminanceToAlpha" result="alphaNoise" />
<feComponentTransfer in="alphaNoise" result="coloredNoise1">
<feFuncA type="discrete" tableValues="0 0 0 0 1 1 1 1 1 1 1 1 1 1 1 1 1 1 1 1 1 1 1 1 1 1 1 1 1 1 1 1 1 1 1 1 1 1 1 1 1 1 1 1 1 0 0 0 0 0 0 0 0 0 0 0 0 0 0 0 0 0 0 0 0 0 0 0 0 0 0 0 0 0 0 0 0 0 0 0 0 0 0 0 0 0 0 0 0 0 0 0 0 0 0 0 0 0 0 0 "/>
</feComponentTransfer>
<feComposite operator="in" in2="shape" in="coloredNoise1" result="noise1Clipped" />
<feFlood flood-color="rgba(255, 255, 255, 0.25)" result="color1Flood" />
<feComposite operator="in" in2="noise1Clipped" in="color1Flood" result="color1" />
<feMerge result="effect1_noise_401_115">
<feMergeNode in="shape" />
<feMergeNode in="color1" />
</feMerge>
</filter>
<filter id="filter1_n_401_115" x="-1" y="-30.8379" width="406" height="619.34" filterUnits="userSpaceOnUse" color-interpolation-filters="sRGB">
<feFlood flood-opacity="0" result="BackgroundImageFix"/>
<feBlend mode="normal" in="SourceGraphic" in2="BackgroundImageFix" result="shape"/>
<feTurbulence type="fractalNoise" baseFrequency="1 1" stitchTiles="stitch" numOctaves="3" result="noise" seed="4636" />
<feColorMatrix in="noise" type="luminanceToAlpha" result="alphaNoise" />
<feComponentTransfer in="alphaNoise" result="coloredNoise1">
<feFuncA type="discrete" tableValues="0 0 0 0 0 0 0 0 0 1 1 1 1 1 1 1 1 1 1 1 1 1 1 1 1 1 1 1 1 1 1 1 1 1 1 1 1 1 1 1 0 0 0 0 0 0 0 0 0 0 0 0 0 0 0 0 0 0 0 0 0 0 0 0 0 0 0 0 0 0 0 0 0 0 0 0 0 0 0 0 0 0 0 0 0 0 0 0 0 0 0 0 0 0 0 0 0 0 0 0 "/>
</feComponentTransfer>
<feComposite operator="in" in2="shape" in="coloredNoise1" result="noise1Clipped" />
<feFlood flood-color="rgba(0, 18, 40, 0.3)" result="color1Flood" />
<feComposite operator="in" in2="noise1Clipped" in="color1Flood" result="color1" />
<feMerge result="effect1_noise_401_115">
<feMergeNode in="shape" />
<feMergeNode in="color1" />
</feMerge>
</filter>
<linearGradient id="paint0_linear_401_115" x1="200.25" y1="-51" x2="200.25" y2="588.5" gradientUnits="userSpaceOnUse">
<stop stop-color="#D9D9D9" stop-opacity="0.05"/>
<stop offset="1" stop-color="#003566"/>
</linearGradient>
<linearGradient id="paint1_linear_401_115" x1="103.5" y1="-47.5" x2="202" y2="588.502" gradientUnits="userSpaceOnUse">
<stop stop-color="#6FFFE9" stop-opacity="0.1"/>
<stop offset="1" stop-color="#003566"/>
</linearGradient>
<linearGradient id="paint2_linear_401_115" x1="373.5" y1="120.5" x2="72" y2="597" gradientUnits="userSpaceOnUse">
<stop stop-color="#005C66" stop-opacity="0.1"/>
<stop offset="1" stop-color="#001228"/>
</linearGradient>
</defs>
</svg>
