<svg width="398" height="586" viewBox="0 0 398 586" fill="none" xmlns="http://www.w3.org/2000/svg">
<rect width="398" height="586" rx="20" fill="#5BC0BE"/>
<mask id="mask0_401_107" style="mask-type:alpha" maskUnits="userSpaceOnUse" x="0" y="0" width="398" height="586">
<rect width="398" height="586" rx="20" transform="matrix(-1 0 0 1 398 0)" fill="#D9D9D9"/>
</mask>
<g mask="url(#mask0_401_107)">
<g filter="url(#filter0_n_401_107)">
<path d="M1.5 588.5H399V178.5C399 178.5 353.425 126.036 316 103.5C275.056 78.8453 244.313 82.2639 200.25 63.75C117.623 29.0327 1.5 -51 1.5 -51V588.5Z" fill="url(#paint0_linear_401_107)"/>
</g>
<g filter="url(#filter1_n_401_107)">
<path d="M-1 588.502H405V375.502C381.126 260.81 140 196.003 140 196.003C168.054 117.58 134.226 -96.5646 -1 -10.9982V588.502Z" fill="url(#paint1_linear_401_107)"/>
</g>
<path d="M-6 597H395C210.5 541 125.5 430.5 180 298C231.556 172.657 180 87.5 -6 5V597Z" fill="url(#paint2_linear_401_107)"/>
<path d="M211 92.4993C211 89.1843 212.263 86.0051 214.512 83.661C216.761 81.3169 219.811 80 222.992 80H302.322C305.502 80 308.552 81.3169 310.801 83.661C313.05 86.0051 314.314 89.1843 314.314 92.4993V118.933L313.819 118.686L311.919 117.771C310.353 117.018 308.658 116.6 306.934 116.54V92.4993C306.934 89.8456 304.868 87.6919 302.322 87.6919H222.992C220.446 87.6919 218.38 89.8456 218.38 92.4993V159.803C218.38 162.457 220.446 164.611 222.992 164.611H233.139V151.15C233.139 148.6 234.111 146.154 235.84 144.351C237.57 142.548 239.917 141.535 242.363 141.535H282.951C284.162 141.535 285.361 141.784 286.481 142.267C287.6 142.75 288.617 143.459 289.473 144.351C290.33 145.244 291.009 146.304 291.473 147.471C291.936 148.637 292.175 149.887 292.175 151.15V154.027L289.566 153.315C287.558 152.768 285.443 152.825 283.465 153.478C281.486 154.131 279.726 155.355 278.386 157.007L274.933 161.273C273.709 162.78 272.819 164.55 272.324 166.456C271.83 168.362 271.744 170.358 272.073 172.303H222.992C221.417 172.303 219.858 171.98 218.403 171.351C216.948 170.723 215.626 169.803 214.512 168.642C213.399 167.481 212.515 166.103 211.913 164.587C211.31 163.07 211 161.445 211 159.803V92.4993ZM262.657 133.843C267.55 133.843 272.242 131.817 275.702 128.211C279.162 124.605 281.106 119.714 281.106 114.614C281.106 109.514 279.162 104.622 275.702 101.016C272.242 97.4098 267.55 95.3838 262.657 95.3838C257.764 95.3838 253.071 97.4098 249.612 101.016C246.152 104.622 244.208 109.514 244.208 114.614C244.208 119.714 246.152 124.605 249.612 128.211C253.071 131.817 257.764 133.843 262.657 133.843ZM297.894 132.74L299.662 127.44C299.99 126.434 300.518 125.512 301.211 124.733C301.904 123.954 302.746 123.335 303.683 122.918C304.62 122.5 305.631 122.292 306.65 122.308C307.669 122.324 308.673 122.563 309.598 123.009L311.498 123.925C314.598 125.413 317.195 128.082 317.697 131.628C320.177 148.993 307.067 173.01 291.61 179.422C288.456 180.729 284.969 179.691 282.202 177.595L280.504 176.31C279.675 175.681 278.979 174.882 278.458 173.961C277.938 173.04 277.604 172.017 277.478 170.957C277.352 169.896 277.437 168.819 277.726 167.794C278.016 166.769 278.504 165.816 279.161 164.996L282.619 160.727C283.976 159.05 286.124 158.342 288.164 158.896L295.621 160.934C301.259 157.093 304.241 151.632 304.565 144.55L299.167 138.735C298.445 137.955 297.944 136.981 297.72 135.922C297.495 134.864 297.555 133.765 297.894 132.74Z" fill="#5BC0BE"/>
</g>
<defs>
<filter id="filter0_n_401_107" x="1.5" y="-51" width="397.5" height="639.5" filterUnits="userSpaceOnUse" color-interpolation-filters="sRGB">
<feFlood flood-opacity="0" result="BackgroundImageFix"/>
<feBlend mode="normal" in="SourceGraphic" in2="BackgroundImageFix" result="shape"/>
<feTurbulence type="fractalNoise" baseFrequency="2 2" stitchTiles="stitch" numOctaves="3" result="noise" seed="8392" />
<feColorMatrix in="noise" type="luminanceToAlpha" result="alphaNoise" />
<feComponentTransfer in="alphaNoise" result="coloredNoise1">
<feFuncA type="discrete" tableValues="0 0 0 0 0 0 0 0 0 0 0 0 1 1 1 1 1 1 1 1 1 1 1 1 1 1 1 1 1 1 1 1 1 1 1 1 1 1 0 0 0 0 0 0 0 0 0 0 0 0 0 0 0 0 0 0 0 0 0 0 0 0 0 0 0 0 0 0 0 0 0 0 0 0 0 0 0 0 0 0 0 0 0 0 0 0 0 0 0 0 0 0 0 0 0 0 0 0 0 0 "/>
</feComponentTransfer>
<feComposite operator="in" in2="shape" in="coloredNoise1" result="noise1Clipped" />
<feFlood flood-color="rgba(255, 255, 255, 0.15)" result="color1Flood" />
<feComposite operator="in" in2="noise1Clipped" in="color1Flood" result="color1" />
<feMerge result="effect1_noise_401_107">
<feMergeNode in="shape" />
<feMergeNode in="color1" />
</feMerge>
</filter>
<filter id="filter1_n_401_107" x="-1" y="-30.8379" width="406" height="619.34" filterUnits="userSpaceOnUse" color-interpolation-filters="sRGB">
<feFlood flood-opacity="0" result="BackgroundImageFix"/>
<feBlend mode="normal" in="SourceGraphic" in2="BackgroundImageFix" result="shape"/>
<feTurbulence type="fractalNoise" baseFrequency="1 1" stitchTiles="stitch" numOctaves="3" result="noise" seed="4636" />
<feColorMatrix in="noise" type="luminanceToAlpha" result="alphaNoise" />
<feComponentTransfer in="alphaNoise" result="coloredNoise1">
<feFuncA type="discrete" tableValues="0 0 0 0 0 0 0 0 0 1 1 1 1 1 1 1 1 1 1 1 1 1 1 1 1 1 1 1 1 1 1 1 1 1 1 1 1 1 1 1 0 0 0 0 0 0 0 0 0 0 0 0 0 0 0 0 0 0 0 0 0 0 0 0 0 0 0 0 0 0 0 0 0 0 0 0 0 0 0 0 0 0 0 0 0 0 0 0 0 0 0 0 0 0 0 0 0 0 0 0 "/>
</feComponentTransfer>
<feComposite operator="in" in2="shape" in="coloredNoise1" result="noise1Clipped" />
<feFlood flood-color="rgba(0, 18, 40, 0.3)" result="color1Flood" />
<feComposite operator="in" in2="noise1Clipped" in="color1Flood" result="color1" />
<feMerge result="effect1_noise_401_107">
<feMergeNode in="shape" />
<feMergeNode in="color1" />
</feMerge>
</filter>
<linearGradient id="paint0_linear_401_107" x1="210.5" y1="2" x2="200.25" y2="588.5" gradientUnits="userSpaceOnUse">
<stop stop-color="#001D3D" stop-opacity="0.2"/>
<stop offset="1" stop-color="#0F579A"/>
</linearGradient>
<linearGradient id="paint1_linear_401_107" x1="-346" y1="-363.5" x2="202" y2="588.502" gradientUnits="userSpaceOnUse">
<stop stop-color="white" stop-opacity="0.1"/>
<stop offset="1" stop-color="#003566"/>
</linearGradient>
<linearGradient id="paint2_linear_401_107" x1="75.5" y1="141" x2="72" y2="597" gradientUnits="userSpaceOnUse">
<stop stop-color="#0F579A" stop-opacity="0.1"/>
<stop offset="1" stop-color="#001228" stop-opacity="0.5"/>
</linearGradient>
</defs>
</svg>
