<svg width="398" height="586" viewBox="0 0 398 586" fill="none" xmlns="http://www.w3.org/2000/svg">
<rect width="398" height="586" rx="20" fill="#0F579A"/>
<mask id="mask0_401_99" style="mask-type:alpha" maskUnits="userSpaceOnUse" x="0" y="0" width="398" height="586">
<rect width="398" height="586" rx="20" fill="#D9D9D9"/>
</mask>
<g mask="url(#mask0_401_99)">
<g filter="url(#filter0_n_401_99)">
<path d="M396.5 588.5H-1V178.5C-1 178.5 44.5748 126.036 82 103.5C122.944 78.8453 153.687 82.2639 197.75 63.75C280.377 29.0327 396.5 -51 396.5 -51V588.5Z" fill="url(#paint0_linear_401_99)"/>
</g>
<path d="M399 588.502H-7V375.502C16.8736 260.81 258 196.003 258 196.003C229.946 117.58 263.774 -96.5646 399 -10.9982V588.502Z" fill="url(#paint1_linear_401_99)"/>
<g clip-path="url(#clip0_401_99)">
<path opacity="0.2" d="M175.5 102.625V157.375H125.312C128.922 157.375 132.45 156.305 135.452 154.299C138.453 152.294 140.792 149.444 142.173 146.109C143.555 142.774 143.916 139.105 143.212 135.565C142.508 132.024 140.77 128.773 138.217 126.22C135.665 123.668 132.413 121.93 128.873 121.226C125.333 120.521 121.663 120.883 118.329 122.264C114.994 123.645 112.144 125.985 110.138 128.986C108.133 131.987 107.062 135.515 107.062 139.125H102.5V102.625H175.5Z" fill="#003566" fill-opacity="0.9"/>
<path d="M189.188 79.8125H88.8125C86.3924 79.8125 84.0714 80.7739 82.3602 82.4852C80.6489 84.1964 79.6875 86.5174 79.6875 88.9375V171.062C79.6875 173.483 80.6489 175.804 82.3602 177.515C84.0714 179.226 86.3924 180.188 88.8125 180.188H96.449C97.3125 180.188 98.1583 179.943 98.8882 179.482C99.6181 179.02 100.202 178.361 100.572 177.581C102.791 172.897 106.294 168.939 110.673 166.167C115.053 163.396 120.13 161.924 125.312 161.924C130.495 161.924 135.572 163.396 139.952 166.167C144.331 168.939 147.834 172.897 150.053 177.581C150.423 178.361 151.007 179.02 151.737 179.482C152.467 179.943 153.313 180.188 154.176 180.188H189.188C191.608 180.188 193.929 179.226 195.64 177.515C197.351 175.804 198.312 173.483 198.312 171.062V88.9375C198.312 86.5174 197.351 84.1964 195.64 82.4852C193.929 80.7739 191.608 79.8125 189.188 79.8125ZM111.625 139.125C111.625 136.418 112.428 133.772 113.932 131.521C115.436 129.27 117.573 127.515 120.075 126.479C122.576 125.443 125.328 125.172 127.983 125.701C130.638 126.229 133.077 127.532 134.991 129.446C136.905 131.361 138.209 133.8 138.737 136.455C139.265 139.11 138.994 141.862 137.958 144.363C136.922 146.864 135.168 149.002 132.917 150.506C130.666 152.01 128.02 152.812 125.312 152.812C121.682 152.812 118.201 151.37 115.634 148.804C113.067 146.237 111.625 142.755 111.625 139.125ZM189.188 171.062H156.925C153.115 164.512 147.371 159.301 140.483 156.143C143.937 153.068 146.374 149.016 147.472 144.523C148.571 140.031 148.278 135.311 146.632 130.99C144.987 126.668 142.067 122.948 138.26 120.323C134.452 117.699 129.937 116.293 125.312 116.293C120.688 116.293 116.173 117.699 112.365 120.323C108.558 122.948 105.638 126.668 103.993 130.99C102.347 135.311 102.054 140.031 103.153 144.523C104.251 149.016 106.688 153.068 110.142 156.143C103.254 159.301 97.5104 164.512 93.7001 171.062H88.8125V88.9375H189.188V171.062ZM97.9375 111.75V102.625C97.9375 101.415 98.4182 100.254 99.2738 99.3988C100.129 98.5432 101.29 98.0625 102.5 98.0625H175.5C176.71 98.0625 177.871 98.5432 178.726 99.3988C179.582 100.254 180.062 101.415 180.062 102.625V157.375C180.062 158.585 179.582 159.746 178.726 160.601C177.871 161.457 176.71 161.938 175.5 161.938H166.375C165.165 161.938 164.004 161.457 163.149 160.601C162.293 159.746 161.812 158.585 161.812 157.375C161.812 156.165 162.293 155.004 163.149 154.149C164.004 153.293 165.165 152.812 166.375 152.812H170.938V107.188H107.062V111.75C107.062 112.96 106.582 114.121 105.726 114.976C104.871 115.832 103.71 116.312 102.5 116.312C101.29 116.312 100.129 115.832 99.2738 114.976C98.4182 114.121 97.9375 112.96 97.9375 111.75Z" fill="#0F579A"/>
</g>
<g filter="url(#filter1_n_401_99)">
<path d="M404 597H3C187.5 541 272.5 430.5 218 298C166.444 172.657 218 87.5 404 5V597Z" fill="url(#paint2_linear_401_99)"/>
</g>
</g>
<defs>
<filter id="filter0_n_401_99" x="-1" y="-51" width="397.5" height="639.5" filterUnits="userSpaceOnUse" color-interpolation-filters="sRGB">
<feFlood flood-opacity="0" result="BackgroundImageFix"/>
<feBlend mode="normal" in="SourceGraphic" in2="BackgroundImageFix" result="shape"/>
<feTurbulence type="fractalNoise" baseFrequency="2 2" stitchTiles="stitch" numOctaves="3" result="noise" seed="8392" />
<feColorMatrix in="noise" type="luminanceToAlpha" result="alphaNoise" />
<feComponentTransfer in="alphaNoise" result="coloredNoise1">
<feFuncA type="discrete" tableValues="0 0 0 0 1 1 1 1 1 1 1 1 1 1 1 1 1 1 1 1 1 1 1 1 1 1 1 1 1 1 1 1 1 1 1 1 1 1 1 1 1 1 1 1 1 0 0 0 0 0 0 0 0 0 0 0 0 0 0 0 0 0 0 0 0 0 0 0 0 0 0 0 0 0 0 0 0 0 0 0 0 0 0 0 0 0 0 0 0 0 0 0 0 0 0 0 0 0 0 0 "/>
</feComponentTransfer>
<feComposite operator="in" in2="shape" in="coloredNoise1" result="noise1Clipped" />
<feFlood flood-color="rgba(255, 255, 255, 0.25)" result="color1Flood" />
<feComposite operator="in" in2="noise1Clipped" in="color1Flood" result="color1" />
<feMerge result="effect1_noise_401_99">
<feMergeNode in="shape" />
<feMergeNode in="color1" />
</feMerge>
</filter>
<filter id="filter1_n_401_99" x="3" y="5" width="401" height="592" filterUnits="userSpaceOnUse" color-interpolation-filters="sRGB">
<feFlood flood-opacity="0" result="BackgroundImageFix"/>
<feBlend mode="normal" in="SourceGraphic" in2="BackgroundImageFix" result="shape"/>
<feTurbulence type="fractalNoise" baseFrequency="1 1" stitchTiles="stitch" numOctaves="3" result="noise" seed="4636" />
<feColorMatrix in="noise" type="luminanceToAlpha" result="alphaNoise" />
<feComponentTransfer in="alphaNoise" result="coloredNoise1">
<feFuncA type="discrete" tableValues="0 0 0 0 0 0 0 0 0 1 1 1 1 1 1 1 1 1 1 1 1 1 1 1 1 1 1 1 1 1 1 1 1 1 1 1 1 1 1 1 0 0 0 0 0 0 0 0 0 0 0 0 0 0 0 0 0 0 0 0 0 0 0 0 0 0 0 0 0 0 0 0 0 0 0 0 0 0 0 0 0 0 0 0 0 0 0 0 0 0 0 0 0 0 0 0 0 0 0 0 "/>
</feComponentTransfer>
<feComposite operator="in" in2="shape" in="coloredNoise1" result="noise1Clipped" />
<feFlood flood-color="rgba(0, 18, 40, 0.3)" result="color1Flood" />
<feComposite operator="in" in2="noise1Clipped" in="color1Flood" result="color1" />
<feMerge result="effect1_noise_401_99">
<feMergeNode in="shape" />
<feMergeNode in="color1" />
</feMerge>
</filter>
<linearGradient id="paint0_linear_401_99" x1="197.75" y1="-51" x2="197.75" y2="588.5" gradientUnits="userSpaceOnUse">
<stop stop-color="#D9D9D9" stop-opacity="0.3"/>
<stop offset="1" stop-color="#003566"/>
</linearGradient>
<linearGradient id="paint1_linear_401_99" x1="294.5" y1="-47.5" x2="196" y2="588.502" gradientUnits="userSpaceOnUse">
<stop stop-color="#6FFFE9" stop-opacity="0.1"/>
<stop offset="1" stop-color="#003566"/>
</linearGradient>
<linearGradient id="paint2_linear_401_99" x1="24.5" y1="120.5" x2="326" y2="597" gradientUnits="userSpaceOnUse">
<stop stop-color="#003566" stop-opacity="0.1"/>
<stop offset="1" stop-color="#001228" stop-opacity="0.6"/>
</linearGradient>
<clipPath id="clip0_401_99">
<rect width="146" height="146" fill="white" transform="translate(80 80)"/>
</clipPath>
</defs>
</svg>
