<svg width="398" height="586" viewBox="0 0 398 586" fill="none" xmlns="http://www.w3.org/2000/svg">
<rect width="398" height="586" rx="20" fill="#005C66"/>
<mask id="mask0_401_123" style="mask-type:alpha" maskUnits="userSpaceOnUse" x="0" y="0" width="398" height="586">
<rect width="398" height="586" rx="20" fill="#D9D9D9"/>
</mask>
<g mask="url(#mask0_401_123)">
<g filter="url(#filter0_n_401_123)">
<path d="M396.5 588.5H-1V178.5C-1 178.5 44.5748 126.036 82 103.5C122.944 78.8453 153.687 82.2639 197.75 63.75C280.377 29.0327 396.5 -51 396.5 -51V588.5Z" fill="url(#paint0_linear_401_123)"/>
</g>
<g filter="url(#filter1_n_401_123)">
<path d="M399 588.502H-7V375.502C16.8736 260.81 258 196.003 258 196.003C229.946 117.58 263.774 -96.5646 399 -10.9982V588.502Z" fill="url(#paint1_linear_401_123)"/>
</g>
<path d="M404 597H3C187.5 541 272.5 430.5 218 298C166.444 172.657 218 87.5 404 5V597Z" fill="url(#paint2_linear_401_123)"/>
</g>
<path fill-rule="evenodd" clip-rule="evenodd" d="M107.778 85.5556C107.778 84.0821 107.192 82.6691 106.151 81.6272C105.109 80.5853 103.696 80 102.222 80H85.5556C84.0821 80 82.6691 80.5853 81.6272 81.6272C80.5853 82.6691 80 84.0821 80 85.5556V174.444C80 175.918 80.5853 177.331 81.6272 178.373C82.6691 179.415 84.0821 180 85.5556 180H102.222C103.696 180 105.109 179.415 106.151 178.373C107.192 177.331 107.778 175.918 107.778 174.444V85.5556ZM91.1111 91.1111V168.889H96.6667V91.1111H91.1111Z" fill="#005C66"/>
<path d="M113.333 122.528V174.445C113.333 175.918 113.919 177.331 114.96 178.373C116.002 179.415 117.415 180.001 118.889 180.001H135.555C137.029 180.001 138.442 179.415 139.484 178.373C140.526 177.331 141.111 175.918 141.111 174.445V136.939H140.417C136.876 136.941 133.358 136.369 130 135.245V168.889H124.444V132.778C119.993 130.274 116.188 126.764 113.333 122.528Z" fill="#005C66"/>
<path fill-rule="evenodd" clip-rule="evenodd" d="M140.417 128.611C140.65 128.611 140.881 128.607 141.111 128.6C145.399 128.485 149.579 127.231 153.222 124.967L167.739 139.483L175.594 131.628L161.078 117.111C163.914 112.536 165.151 107.149 164.595 101.795C164.039 96.4412 161.721 91.4233 158.006 87.5286C154.29 83.6338 149.387 81.0826 144.065 80.2751C138.744 79.4676 133.304 80.4495 128.601 83.0668C123.897 85.6841 120.196 89.7887 118.076 94.7367C115.957 99.6847 115.541 105.196 116.892 110.407C118.243 115.617 121.285 120.231 125.542 123.526C129.798 126.821 135.028 128.609 140.411 128.611M140.411 117.5C138.608 117.501 136.824 117.131 135.17 116.415C133.516 115.698 132.027 114.649 130.794 113.333C128.718 111.12 127.468 108.259 127.255 105.232C127.042 102.205 127.879 99.197 129.624 96.7149C131.37 94.2328 133.918 92.4283 136.839 91.6055C139.76 90.7826 142.875 90.9917 145.66 92.1976C148.445 93.4034 150.729 95.5323 152.127 98.2255C153.525 100.919 153.953 104.012 153.337 106.983C152.721 109.954 151.1 112.623 148.746 114.538C146.393 116.454 143.451 117.5 140.417 117.5M152.222 146.667C150.749 146.667 149.336 147.252 148.294 148.294C147.252 149.336 146.667 150.749 146.667 152.222V174.444C146.667 175.918 147.252 177.331 148.294 178.373C149.336 179.415 150.749 180 152.222 180H168.889C170.362 180 171.775 179.415 172.817 178.373C173.859 177.331 174.444 175.918 174.444 174.444V152.222C174.444 150.749 173.859 149.336 172.817 148.294C171.775 147.252 170.362 146.667 168.889 146.667H152.222ZM157.778 168.889V157.778H163.333V168.889H157.778Z" fill="#005C66"/>
<defs>
<filter id="filter0_n_401_123" x="-1" y="-51" width="397.5" height="639.5" filterUnits="userSpaceOnUse" color-interpolation-filters="sRGB">
<feFlood flood-opacity="0" result="BackgroundImageFix"/>
<feBlend mode="normal" in="SourceGraphic" in2="BackgroundImageFix" result="shape"/>
<feTurbulence type="fractalNoise" baseFrequency="2 2" stitchTiles="stitch" numOctaves="3" result="noise" seed="8392" />
<feColorMatrix in="noise" type="luminanceToAlpha" result="alphaNoise" />
<feComponentTransfer in="alphaNoise" result="coloredNoise1">
<feFuncA type="discrete" tableValues="0 0 0 0 1 1 1 1 1 1 1 1 1 1 1 1 1 1 1 1 1 1 1 1 1 1 1 1 1 1 1 1 1 1 1 1 1 1 1 1 1 1 1 1 1 0 0 0 0 0 0 0 0 0 0 0 0 0 0 0 0 0 0 0 0 0 0 0 0 0 0 0 0 0 0 0 0 0 0 0 0 0 0 0 0 0 0 0 0 0 0 0 0 0 0 0 0 0 0 0 "/>
</feComponentTransfer>
<feComposite operator="in" in2="shape" in="coloredNoise1" result="noise1Clipped" />
<feFlood flood-color="rgba(255, 255, 255, 0.25)" result="color1Flood" />
<feComposite operator="in" in2="noise1Clipped" in="color1Flood" result="color1" />
<feMerge result="effect1_noise_401_123">
<feMergeNode in="shape" />
<feMergeNode in="color1" />
</feMerge>
</filter>
<filter id="filter1_n_401_123" x="-7" y="-30.8379" width="406" height="619.34" filterUnits="userSpaceOnUse" color-interpolation-filters="sRGB">
<feFlood flood-opacity="0" result="BackgroundImageFix"/>
<feBlend mode="normal" in="SourceGraphic" in2="BackgroundImageFix" result="shape"/>
<feTurbulence type="fractalNoise" baseFrequency="1 1" stitchTiles="stitch" numOctaves="3" result="noise" seed="4636" />
<feColorMatrix in="noise" type="luminanceToAlpha" result="alphaNoise" />
<feComponentTransfer in="alphaNoise" result="coloredNoise1">
<feFuncA type="discrete" tableValues="0 0 0 0 0 0 0 0 0 1 1 1 1 1 1 1 1 1 1 1 1 1 1 1 1 1 1 1 1 1 1 1 1 1 1 1 1 1 1 1 0 0 0 0 0 0 0 0 0 0 0 0 0 0 0 0 0 0 0 0 0 0 0 0 0 0 0 0 0 0 0 0 0 0 0 0 0 0 0 0 0 0 0 0 0 0 0 0 0 0 0 0 0 0 0 0 0 0 0 0 "/>
</feComponentTransfer>
<feComposite operator="in" in2="shape" in="coloredNoise1" result="noise1Clipped" />
<feFlood flood-color="rgba(0, 18, 40, 0.3)" result="color1Flood" />
<feComposite operator="in" in2="noise1Clipped" in="color1Flood" result="color1" />
<feMerge result="effect1_noise_401_123">
<feMergeNode in="shape" />
<feMergeNode in="color1" />
</feMerge>
</filter>
<linearGradient id="paint0_linear_401_123" x1="197.75" y1="-51" x2="197.75" y2="588.5" gradientUnits="userSpaceOnUse">
<stop stop-color="#D9D9D9" stop-opacity="0.1"/>
<stop offset="1" stop-color="#6FFFE9" stop-opacity="0.5"/>
</linearGradient>
<linearGradient id="paint1_linear_401_123" x1="294.5" y1="-47.5" x2="196" y2="588.502" gradientUnits="userSpaceOnUse">
<stop stop-color="white" stop-opacity="0.05"/>
<stop offset="1" stop-color="#005C66"/>
</linearGradient>
<linearGradient id="paint2_linear_401_123" x1="3" y1="66" x2="326" y2="597" gradientUnits="userSpaceOnUse">
<stop stop-color="#0F579A" stop-opacity="0.05"/>
<stop offset="1" stop-color="#083516" stop-opacity="0.6"/>
</linearGradient>
</defs>
</svg>
